<svg id="Capa_1" data-name="Capa 1" xmlns="http://www.w3.org/2000/svg" xmlns:xlink="http://www.w3.org/1999/xlink" viewBox="0 0 360 360"><defs><style>.cls-1{fill:#fff;}.cls-2{fill:url(#Degradado_sin_nombre_2);}.cls-3{fill:url(#Degradado_sin_nombre_4);}.cls-4{fill:url(#Degradado_sin_nombre_11);}.cls-5{fill:url(#Degradado_sin_nombre_8);}.cls-6{fill:url(#Degradado_sin_nombre_6);}.cls-7{fill:url(#Degradado_sin_nombre_12);}</style><linearGradient id="Degradado_sin_nombre_2" x1="204.42" y1="127.14" x2="153.81" y2="248.51" gradientTransform="matrix(0.16, -0.99, -0.99, -0.16, 343.07, 399.26)" gradientUnits="userSpaceOnUse"><stop offset="0" stop-color="#24a6e0"/><stop offset="1" stop-color="#2474e0"/></linearGradient><linearGradient id="Degradado_sin_nombre_4" x1="243.8" y1="114.17" x2="246.26" y2="130.86" xlink:href="#Degradado_sin_nombre_2"/><linearGradient id="Degradado_sin_nombre_11" x1="159.67" y1="260.09" x2="206.07" y2="157.46" gradientTransform="matrix(0.16, -0.99, -0.99, -0.16, 343.07, 399.26)" gradientUnits="userSpaceOnUse"><stop offset="0" stop-color="#24a6e0"/><stop offset="1" stop-color="#24a6e0" stop-opacity="0"/></linearGradient><linearGradient id="Degradado_sin_nombre_8" x1="254.22" y1="143.23" x2="280.76" y2="133.39" gradientTransform="matrix(0.16, -0.99, -0.99, -0.16, 343.07, 399.26)" gradientUnits="userSpaceOnUse"><stop offset="0" stop-color="#2474e0"/><stop offset="1" stop-color="#24a6e0"/></linearGradient><linearGradient id="Degradado_sin_nombre_6" x1="245.78" y1="159.92" x2="245.78" y2="141.14" xlink:href="#Degradado_sin_nombre_2"/><linearGradient id="Degradado_sin_nombre_12" x1="91.68" y1="247.7" x2="200.28" y2="148.94" xlink:href="#Degradado_sin_nombre_11"/></defs><path class="cls-1" d="M110.9,248.06q-3.65-3.65-1.3-7.8L119,224.15a5.89,5.89,0,0,1,4.42-3,5,5,0,0,1,4.41,1.17l1.3.78a29.75,29.75,0,0,0,3,2.08l4.29,2.6c1.73,1,3.46,2,5.2,3a61.49,61.49,0,0,0,6,2.86c2.24,1,4.41,1.78,6.49,2.47a50.68,50.68,0,0,0,6.5,1.69,33.85,33.85,0,0,0,6.5.65q10.13,0,16.89-5.85t6.76-14.16q0-9.62-8.06-17t-24.95-14.17q-21.83-8.82-35.34-22.09t-13.52-34q0-19.74,15-34.83t43.52-15.07a84.28,84.28,0,0,1,52,17.42,5.26,5.26,0,0,1,2.34,3.89,6,6,0,0,1-.78,4.68L211,122q-4.17,6.24-9.1,3.12-22.87-14.3-36.13-14.29-10.39,0-16.63,5.72T142.87,129q0,9.1,7.27,15.86t23.39,13.25a167.5,167.5,0,0,1,19.37,9,127.51,127.51,0,0,1,16.88,11.44,46.84,46.84,0,0,1,13.39,16.63,49.49,49.49,0,0,1,4.68,21.7q0,21-16.63,36.25t-43.14,15.21a89.51,89.51,0,0,1-28.2-4.42q-13.4-4.43-19.1-8.19A73.7,73.7,0,0,1,110.9,248.06Z"/><path class="cls-2" d="M255.68,98.07c-5.56-.92-10.79,6.75-11.55,15.73l-.88,10.26-26.86,4.65a6.44,6.44,0,0,0-5.22,5.19l-.61,3.55,30.15,5.34c-18.77,45-70.83,70-105,66.93-37.56-3.36-31.31-41.16-31.31-41.16-35.9,27.55-17.51,90.8,56,63.05,49.13-18.55,72.6-56.74,82-78.45h0l0,0a.76.76,0,0,1,1-.4.76.76,0,0,1,.44,1v0a0,0,0,0,1,0,0,197.63,197.63,0,0,1-22.86,44.41,199.17,199.17,0,0,0,25-43.57l0-.06a.68.68,0,0,1,1.29.44s0,.05,0,.07c-15.43,47.6-52.47,99.19-91.46,110.75-44,13-67.66-20.12-67.66-20.12,13.22,30.33,64.37,56.24,115.26,1.25,36.74-39.71,45.09-74.26,50.57-98.07l.52-3.62,32,5.66.63-3.55a6.42,6.42,0,0,0-3.12-6.67l-24.83-14.26,2.41-9.72c.17-.69.31-1.38.42-2.06C263.32,106.59,260.82,98.92,255.68,98.07Z"/><path class="cls-3" d="M259.16,126.41,284,140.67a6.42,6.42,0,0,1,3.12,6.67l-.63,3.55-32-5.66S257.07,136.69,259.16,126.41Z"/><path class="cls-4" d="M135.71,209.72c34.17,3.05,86.23-21.9,105-66.93,0,0-17.61,62.1-91,79.42-28.46,6.71-50.17-4.93-60.57-33.22a45.64,45.64,0,0,1,15.25-20.43S98.15,206.36,135.71,209.72Z"/><path class="cls-5" d="M255.68,98.07c-5.56-.92-10.79,6.75-11.55,15.73l-.88,10.26c-.84,5.45-2,14.1-2.38,17.39,0,.07,0,.14,0,.2a7.94,7.94,0,0,1-.15,1.14c2.37-10.65,11.06-45.21,21.32-36.14C261.25,102.09,259,98.63,255.68,98.07Z"/><path class="cls-6" d="M240.71,142.79l-30.15-5.34.61-3.55a6.44,6.44,0,0,1,5.22-5.19l26.86-4.65C242.2,130.9,240.71,142.79,240.71,142.79Z"/><path class="cls-7" d="M88.16,245.67s23.66,33.17,67.66,20.12c39-11.56,76-63.15,91.46-110.75,0,0,0,0,0-.07s-14.1,56.71-48.36,88.18-55.34,30.93-79.88,26.33c-12.28-2.29-23-13-30.62-23.2C88.34,246.08,88.25,245.88,88.16,245.67Z"/><path class="cls-1" d="M110.9,248.06q-3.65-3.65-1.3-7.8L119,224.15a5.89,5.89,0,0,1,4.42-3,5,5,0,0,1,4.41,1.17l1.3.78a29.75,29.75,0,0,0,3,2.08l4.29,2.6c1.73,1,3.46,2,5.2,3a61.49,61.49,0,0,0,6,2.86c2.24,1,4.41,1.78,6.49,2.47a50.68,50.68,0,0,0,6.5,1.69,33.85,33.85,0,0,0,6.5.65q10.13,0,16.89-5.85t6.76-14.16q0-9.62-8.06-17t-24.95-14.17q-21.83-8.82-35.34-22.09t-13.52-34q0-19.74,15-34.83t43.52-15.07a84.28,84.28,0,0,1,52,17.42,5.26,5.26,0,0,1,2.34,3.89,6,6,0,0,1-.78,4.68L211,122q-4.17,6.24-9.1,3.12-22.87-14.3-36.13-14.29-10.39,0-16.63,5.72T142.87,129q0,9.1,7.27,15.86t23.39,13.25a167.5,167.5,0,0,1,19.37,9,127.51,127.51,0,0,1,16.88,11.44,46.84,46.84,0,0,1,13.39,16.63c3.12,6.5-6.92,12.24-10.52,19.35-6.4,12.64-6.4,12.64-17.48,22.78S178.68,257.69,161,257.69c-9.88,0-12.21,9.16-21.13,6.22s-15.29-5.68-19.1-8.19A73.7,73.7,0,0,1,110.9,248.06Z"/></svg>